<svg width="15" height="16" viewBox="0 0 15 16" fill="none" xmlns="http://www.w3.org/2000/svg">
<g id="IONIcon/C/card/default" clip-path="url(#clip0_2978_159)">
<path id="Vector" d="M0.937744 11.5151C0.937744 11.9503 1.1106 12.3676 1.41827 12.6752C1.72595 12.9829 2.14325 13.1558 2.57837 13.1558H12.4221C12.8572 13.1558 13.2745 12.9829 13.5822 12.6752C13.8899 12.3676 14.0627 11.9503 14.0627 11.5151V7.00342H0.937744V11.5151ZM2.87134 9.28857C2.87134 9.05547 2.96394 8.83192 3.12876 8.66709C3.29359 8.50227 3.51714 8.40967 3.75024 8.40967H5.15649C5.38959 8.40967 5.61315 8.50227 5.77797 8.66709C5.9428 8.83192 6.0354 9.05547 6.0354 9.28857V9.87451C6.0354 10.1076 5.9428 10.3312 5.77797 10.496C5.61315 10.6608 5.38959 10.7534 5.15649 10.7534H3.75024C3.51714 10.7534 3.29359 10.6608 3.12876 10.496C2.96394 10.3312 2.87134 10.1076 2.87134 9.87451V9.28857Z" fill="#ADF22F"/>
<path id="Vector_2" d="M12.4221 2.84277H2.57837C2.14325 2.84277 1.72595 3.01562 1.41827 3.3233C1.1106 3.63098 0.937744 4.04828 0.937744 4.4834V5.24512H14.0627V4.4834C14.0627 4.04828 13.8899 3.63098 13.5822 3.3233C13.2745 3.01562 12.8572 2.84277 12.4221 2.84277Z" fill="#ADF22F"/>
</g>
<defs>
<clipPath id="clip0_2978_159">
<rect width="15" height="15" fill="white" transform="translate(0.000244141 0.5)"/>
</clipPath>
</defs>
</svg>
