<svg width="23" height="23" viewBox="0 0 23 23" fill="none" xmlns="http://www.w3.org/2000/svg">
<g id="IONIcon/C/cart/default">
<path id="Vector" d="M7.73425 19.6875C8.5109 19.6875 9.1405 19.0579 9.1405 18.2812C9.1405 17.5046 8.5109 16.875 7.73425 16.875C6.9576 16.875 6.328 17.5046 6.328 18.2812C6.328 19.0579 6.9576 19.6875 7.73425 19.6875Z" fill="white"/>
<path id="Vector_2" d="M17.5781 19.6875C18.3547 19.6875 18.9843 19.0579 18.9843 18.2812C18.9843 17.5046 18.3547 16.875 17.5781 16.875C16.8014 16.875 16.1718 17.5046 16.1718 18.2812C16.1718 19.0579 16.8014 19.6875 17.5781 19.6875Z" fill="white"/>
<path id="Vector_3" d="M20.0742 5.30796C19.9754 5.18713 19.8509 5.08981 19.7098 5.02308C19.5688 4.95634 19.4146 4.92185 19.2585 4.92212H5.88378L5.61439 3.3937C5.58567 3.2309 5.50049 3.08342 5.37384 2.97717C5.24718 2.87093 5.08713 2.81271 4.92181 2.81274H2.10931C1.92283 2.81274 1.74399 2.88682 1.61213 3.01868C1.48027 3.15055 1.40619 3.32939 1.40619 3.51587C1.40619 3.70235 1.48027 3.88119 1.61213 4.01305C1.74399 4.14491 1.92283 4.21899 2.10931 4.21899H4.33207L6.33861 15.5912C6.36733 15.754 6.45251 15.9014 6.57916 16.0077C6.70582 16.1139 6.86587 16.1721 7.03119 16.1721H18.2812C18.4677 16.1721 18.6465 16.098 18.7784 15.9662C18.9102 15.8343 18.9843 15.6555 18.9843 15.469C18.9843 15.2825 18.9102 15.1037 18.7784 14.9718C18.6465 14.8399 18.4677 14.7659 18.2812 14.7659H7.62093L7.37308 13.3596H17.9929C18.2367 13.3593 18.473 13.2748 18.6617 13.1203C18.8503 12.9658 18.9798 12.7509 19.0283 12.5119L20.2939 6.18379C20.3244 6.03064 20.3205 5.87263 20.2825 5.72117C20.2445 5.56971 20.1733 5.42857 20.0742 5.30796Z" fill="white"/>
</g>
</svg>
