<svg width="12" height="13" viewBox="0 0 12 13" fill="none" xmlns="http://www.w3.org/2000/svg">
<g id="IONIcon/P/person/default">
<path id="Vector" d="M7.79621 2.01335C7.34012 1.52093 6.70308 1.24976 5.99996 1.24976C5.29309 1.24976 4.65395 1.51929 4.19996 2.00866C3.74106 2.50343 3.51746 3.17585 3.56996 3.90194C3.67402 5.33444 4.7641 6.49975 5.99996 6.49975C7.23582 6.49975 8.32402 5.33468 8.42973 3.90241C8.48293 3.18288 8.25793 2.51186 7.79621 2.01335Z" fill="white"/>
<path id="Vector_2" d="M10.125 11.7493H1.87498C1.767 11.7507 1.66006 11.728 1.56194 11.6829C1.46383 11.6377 1.37701 11.5713 1.30779 11.4884C1.15545 11.3063 1.09404 11.0576 1.13951 10.8061C1.33733 9.7088 1.95467 8.787 2.92498 8.13989C3.78701 7.56544 4.87896 7.24927 5.99998 7.24927C7.12099 7.24927 8.21294 7.56567 9.07498 8.13989C10.0453 8.78677 10.6626 9.70856 10.8604 10.8059C10.9059 11.0574 10.8445 11.3061 10.6922 11.4882C10.623 11.5711 10.5362 11.6376 10.438 11.6828C10.3399 11.7279 10.233 11.7506 10.125 11.7493Z" fill="white"/>
</g>
</svg>
