<svg width="16" height="16" viewBox="0 0 16 16" fill="none" xmlns="http://www.w3.org/2000/svg">
<g id="Icon">
<path id="Vector" d="M13.6294 12.5959L10.8729 9.83935C11.5365 8.95586 11.8948 7.88047 11.8936 6.77549C11.8936 3.95303 9.5973 1.65674 6.77484 1.65674C3.95238 1.65674 1.65609 3.95303 1.65609 6.77549C1.65609 9.59795 3.95238 11.8942 6.77484 11.8942C7.87982 11.8954 8.95521 11.5372 9.83871 10.8735L12.5952 13.6301C12.7348 13.7548 12.9168 13.8214 13.1039 13.8162C13.2909 13.8109 13.4689 13.7343 13.6013 13.6019C13.7336 13.4696 13.8103 13.2916 13.8155 13.1045C13.8207 12.9174 13.7542 12.7354 13.6294 12.5959ZM3.11859 6.77549C3.11859 6.05235 3.33303 5.34545 3.73478 4.74418C4.13653 4.14292 4.70756 3.67429 5.37565 3.39755C6.04375 3.12082 6.7789 3.04841 7.48814 3.18949C8.19738 3.33057 8.84886 3.67879 9.3602 4.19013C9.87153 4.70146 10.2198 5.35294 10.3608 6.06219C10.5019 6.77143 10.4295 7.50658 10.1528 8.17467C9.87604 8.84276 9.40741 9.41379 8.80614 9.81555C8.20488 10.2173 7.49798 10.4317 6.77484 10.4317C5.8055 10.4306 4.87619 10.045 4.19077 9.35956C3.50534 8.67413 3.11975 7.74483 3.11859 6.77549Z" fill="#2D3748"/>
</g>
</svg>
