<svg width="12" height="12" viewBox="0 0 12 12" fill="none" xmlns="http://www.w3.org/2000/svg">
<g id="IONIcon/S/settings/sharp" clip-path="url(#clip0_2611_6744)">
<path id="Vector" d="M5.99997 4.125C5.62913 4.125 5.26662 4.23497 4.95828 4.44099C4.64993 4.64702 4.40961 4.93986 4.2677 5.28247C4.12578 5.62508 4.08865 6.00208 4.161 6.36579C4.23335 6.72951 4.41192 7.0636 4.67415 7.32582C4.93637 7.58805 5.27046 7.76662 5.63418 7.83897C5.99789 7.91132 6.37489 7.87419 6.7175 7.73227C7.06011 7.59036 7.35295 7.35003 7.55897 7.04169C7.765 6.73335 7.87497 6.37084 7.87497 6C7.87349 5.50317 7.67546 5.02712 7.32415 4.67581C6.97285 4.3245 6.49679 4.12648 5.99997 4.125ZM10.0481 6C10.0471 6.1752 10.0343 6.35013 10.0097 6.52359L11.1508 7.41703C11.2005 7.45807 11.234 7.51544 11.2453 7.5789C11.2566 7.64236 11.245 7.70777 11.2125 7.76343L10.1329 9.62718C10.1001 9.68236 10.0489 9.72419 9.98828 9.74533C9.92766 9.76646 9.86154 9.76554 9.80153 9.74273L8.45973 9.20367C8.18033 9.41882 7.87457 9.59738 7.54989 9.735L7.34927 11.1595C7.33804 11.2233 7.305 11.2813 7.25579 11.3234C7.20659 11.3656 7.14428 11.3893 7.0795 11.3906H4.92044C4.85684 11.3894 4.79554 11.3666 4.74655 11.3261C4.69755 11.2855 4.66375 11.2295 4.65067 11.1673L4.45005 9.74273C4.12447 9.60671 3.81849 9.42787 3.54021 9.21093L2.19841 9.75C2.13843 9.77283 2.07232 9.77378 2.01171 9.75269C1.95109 9.7316 1.89986 9.68982 1.867 9.63468L0.787472 7.77117C0.754978 7.7155 0.743337 7.6501 0.754629 7.58664C0.765921 7.52318 0.799411 7.4658 0.849113 7.42476L1.99028 6.53133C1.96594 6.35524 1.9531 6.17775 1.95185 6C1.95282 5.8248 1.96566 5.64987 1.99028 5.4764L0.849113 4.58297C0.799411 4.54193 0.765921 4.48455 0.754629 4.42109C0.743337 4.35763 0.754978 4.29223 0.787472 4.23656L1.867 2.37281C1.89982 2.31764 1.95104 2.27581 2.01166 2.25467C2.07228 2.23354 2.1384 2.23446 2.19841 2.25727L3.54021 2.79633C3.81961 2.58117 4.12537 2.40262 4.45005 2.265L4.65067 0.840469C4.6619 0.77666 4.69494 0.718731 4.74415 0.676581C4.79335 0.634431 4.85566 0.610675 4.92044 0.609375H7.0795C7.1431 0.610613 7.2044 0.633373 7.25339 0.67394C7.30239 0.714507 7.33619 0.770484 7.34927 0.832734L7.54989 2.25727C7.87588 2.3932 8.18226 2.57204 8.46091 2.78906L9.80153 2.25C9.86151 2.22717 9.92762 2.22622 9.98823 2.24731C10.0488 2.2684 10.1001 2.31018 10.1329 2.36531L11.2125 4.22906C11.245 4.28473 11.2566 4.35013 11.2453 4.41359C11.234 4.47705 11.2005 4.53443 11.1508 4.57547L10.0097 5.4689C10.034 5.64491 10.0468 5.82232 10.0481 6Z" fill="white"/>
</g>
<defs>
<clipPath id="clip0_2611_6744">
<rect width="12" height="12" fill="white"/>
</clipPath>
</defs>
</svg>
