<svg width="15" height="16" viewBox="0 0 15 16" fill="none" xmlns="http://www.w3.org/2000/svg">
<g id="IONIcon/R/rocket/sharp" clip-path="url(#clip0_2978_152)">
<path id="Vector" d="M13.9936 1.62154C13.9883 1.59562 13.9756 1.57178 13.9572 1.55278C13.9388 1.53379 13.9154 1.52045 13.8896 1.51431C12.1737 1.09478 8.20895 2.5898 6.06091 4.73696C5.67779 5.11699 5.32852 5.52968 5.01706 5.97036C4.35466 5.91177 3.69226 5.96069 3.12771 6.20679C1.53484 6.90786 1.07107 8.73716 0.941868 9.52407C0.934539 9.56714 0.937303 9.61133 0.949943 9.65315C0.962582 9.69497 0.984752 9.73329 1.01471 9.76509C1.04467 9.79689 1.08159 9.82131 1.12259 9.83643C1.16358 9.85154 1.20752 9.85694 1.25095 9.8522L3.80886 9.57007C3.81069 9.76292 3.82232 9.95555 3.84372 10.1472C3.85659 10.2803 3.91568 10.4047 4.01071 10.4988L5.00124 11.487C5.0954 11.5819 5.21974 11.6409 5.3528 11.654C5.5434 11.6753 5.73495 11.6869 5.92673 11.6888L5.64606 14.2435C5.64138 14.2869 5.64682 14.3308 5.66196 14.3718C5.67709 14.4128 5.70151 14.4497 5.7333 14.4796C5.76509 14.5095 5.80338 14.5317 5.84518 14.5444C5.88697 14.557 5.93113 14.5599 5.97419 14.5526C6.75964 14.4266 8.59216 13.9628 9.28913 12.37C9.53522 11.8054 9.58561 11.1462 9.52878 10.4871C9.97052 10.1756 10.3843 9.82622 10.7654 9.44292C12.9202 7.29897 14.4067 3.42271 13.9936 1.62154ZM8.61559 6.8853C8.41884 6.68867 8.28481 6.4381 8.23048 6.16529C8.17614 5.89248 8.20394 5.60968 8.31034 5.35267C8.41675 5.09566 8.59699 4.87598 8.82827 4.72142C9.05955 4.56686 9.33147 4.48436 9.60964 4.48436C9.88781 4.48436 10.1597 4.56686 10.391 4.72142C10.6223 4.87598 10.8025 5.09566 10.9089 5.35267C11.0153 5.60968 11.0431 5.89248 10.9888 6.16529C10.9345 6.4381 10.8004 6.68867 10.6037 6.8853C10.4732 7.01596 10.3183 7.11962 10.1477 7.19034C9.97712 7.26106 9.79428 7.29746 9.60964 7.29746C9.42499 7.29746 9.24215 7.26106 9.07159 7.19034C8.90102 7.11962 8.74607 7.01596 8.61559 6.8853Z" fill="#ADF22F"/>
<path id="Vector_2" d="M4.93384 12.2028C4.77329 12.3636 4.51577 12.4263 4.20581 12.4799C3.50942 12.5986 2.89448 11.9968 3.01958 11.2928C3.06733 11.0259 3.20854 10.6518 3.29643 10.5639C3.31565 10.5451 3.32843 10.5207 3.33298 10.4941C3.33753 10.4676 3.3336 10.4403 3.32176 10.4162C3.30992 10.392 3.29077 10.3722 3.26703 10.3595C3.24329 10.3469 3.21616 10.342 3.1895 10.3457C2.80008 10.3933 2.43778 10.5699 2.1603 10.8472C1.47153 11.5366 1.40649 14.0945 1.40649 14.0945C1.40649 14.0945 3.96587 14.0294 4.65464 13.3401C4.93286 13.0628 5.10964 12.7 5.15649 12.31C5.16733 12.1875 5.01821 12.1146 4.93384 12.2028Z" fill="#ADF22F"/>
</g>
<defs>
<clipPath id="clip0_2978_152">
<rect width="15" height="15" fill="white" transform="translate(0.000244141 0.5)"/>
</clipPath>
</defs>
</svg>
