<svg width="15" height="16" viewBox="0 0 15 16" fill="none" xmlns="http://www.w3.org/2000/svg">
<g id="IONIcon/D/document/default">
<path id="Vector" d="M12.5393 7.0625H8.43774C8.06478 7.0625 7.7071 6.91434 7.44337 6.65062C7.17965 6.38689 7.03149 6.02921 7.03149 5.65625V1.55469C7.03149 1.52361 7.01915 1.4938 6.99717 1.47182C6.97519 1.44985 6.94539 1.4375 6.91431 1.4375H4.21899C3.72171 1.4375 3.2448 1.63504 2.89317 1.98667C2.54154 2.33831 2.34399 2.81522 2.34399 3.3125V12.6875C2.34399 13.1848 2.54154 13.6617 2.89317 14.0133C3.2448 14.365 3.72171 14.5625 4.21899 14.5625H10.7815C11.2788 14.5625 11.7557 14.365 12.1073 14.0133C12.4589 13.6617 12.6565 13.1848 12.6565 12.6875V7.17969C12.6565 7.14861 12.6441 7.1188 12.6222 7.09682C12.6002 7.07484 12.5704 7.0625 12.5393 7.0625Z" fill="#ADF22F"/>
<path id="Vector_2" d="M12.2821 6.02612L8.0689 1.81294C8.0607 1.80479 8.05029 1.79925 8.03895 1.79701C8.02762 1.79477 8.01587 1.79593 8.0052 1.80034C7.99452 1.80476 7.98539 1.81223 7.97895 1.82182C7.97251 1.83141 7.96904 1.84269 7.96899 1.85425V5.65727C7.96899 5.78159 8.01838 5.90082 8.10629 5.98873C8.1942 6.07664 8.31342 6.12602 8.43774 6.12602H12.2408C12.2523 6.12598 12.2636 6.12251 12.2732 6.11607C12.2828 6.10963 12.2903 6.1005 12.2947 6.08982C12.2991 6.07914 12.3002 6.0674 12.298 6.05607C12.2958 6.04473 12.2902 6.03431 12.2821 6.02612Z" fill="#ADF22F"/>
</g>
</svg>
