<svg width="23" height="23" viewBox="0 0 23 23" fill="none" xmlns="http://www.w3.org/2000/svg">
<path d="M12.6562 9.85571H18.8086C18.8521 9.85571 18.8938 9.873 18.9246 9.90376C18.9553 9.93453 18.9726 9.97626 18.9726 10.0198V18.2815C18.9726 19.0243 18.6775 19.7367 18.1523 20.2619C17.627 20.7872 16.9147 21.0823 16.1718 21.0823H6.32809C5.58528 21.0823 4.87289 20.7872 4.34764 20.2619C3.82239 19.7367 3.52731 19.0243 3.52731 18.2815V4.21899C3.52731 3.47618 3.82239 2.76379 4.34764 2.23854C4.87289 1.71329 5.58528 1.41821 6.32809 1.41821H10.3711C10.4146 1.41821 10.4563 1.4355 10.4871 1.46627C10.5178 1.49703 10.5351 1.53876 10.5351 1.58228V7.73462C10.5351 8.29717 10.7586 8.83668 11.1564 9.23446C11.5542 9.63224 12.0937 9.85571 12.6562 9.85571ZM7.73434 16.887H14.7656C14.9552 16.887 15.137 16.8116 15.2711 16.6776C15.4051 16.5435 15.4804 16.3617 15.4804 16.1721C15.4804 15.9825 15.4051 15.8007 15.2711 15.6666C15.137 15.5326 14.9552 15.4573 14.7656 15.4573H7.73434C7.54476 15.4573 7.36293 15.5326 7.22887 15.6666C7.09481 15.8007 7.0195 15.9825 7.0195 16.1721C7.0195 16.3617 7.09481 16.5435 7.22887 16.6776C7.36293 16.8116 7.54476 16.887 7.73434 16.887ZM7.73434 13.3713H14.7656C14.9552 13.3713 15.137 13.296 15.2711 13.162C15.4051 13.0279 15.4804 12.8461 15.4804 12.6565C15.4804 12.4669 15.4051 12.2851 15.2711 12.151C15.137 12.017 14.9552 11.9416 14.7656 11.9416H7.73434C7.54476 11.9416 7.36293 12.017 7.22887 12.151C7.09481 12.2851 7.0195 12.4669 7.0195 12.6565C7.0195 12.8461 7.09481 13.0279 7.22887 13.162C7.36293 13.296 7.54476 13.3713 7.73434 13.3713Z" fill="white" stroke="#ADF22F" stroke-width="0.0234375"/>
<path d="M12.0946 1.97747L18.4144 8.2972L12.0946 1.97747ZM12.0946 1.97747C12.0946 1.97747 12.0946 1.97747 12.0946 1.97746M12.0946 1.97747L12.0946 1.97746M12.0946 1.97746C12.084 1.96688 12.0704 1.95968 12.0557 1.95677C12.041 1.95386 12.0257 1.95536 12.0118 1.9611C11.9979 1.96684 11.9861 1.97656 11.9777 1.98902C11.9693 2.00148 11.9648 2.01614 11.9648 2.03115V7.73567C11.9648 7.91904 12.0376 8.0949 12.1673 8.22456C12.2969 8.35423 12.4728 8.42707 12.6562 8.42707H18.3607C18.3757 8.42701 18.3903 8.42251 18.4028 8.41413C18.4153 8.40576 18.425 8.39389 18.4307 8.38001C18.4365 8.36613 18.438 8.35086 18.4351 8.33613C18.4321 8.32141 18.425 8.30787 18.4144 8.29722L12.0946 1.97746Z" fill="white" stroke="#ADF22F" stroke-width="0.0234375"/>
</svg>
