<svg width="23" height="23" viewBox="0 0 23 23" fill="none" xmlns="http://www.w3.org/2000/svg">
<path d="M4.19668 4.56804H18.2592C18.4234 4.56797 18.5875 4.57839 18.7505 4.59924C18.6953 4.21155 18.5621 3.83905 18.359 3.50421C18.1559 3.16937 17.8871 2.87913 17.5688 2.65097C17.2506 2.42282 16.8894 2.26149 16.507 2.1767C16.1247 2.09192 15.7292 2.08543 15.3443 2.15764L3.7792 4.13211H3.76602C3.04007 4.27093 2.39451 4.68165 1.96118 5.2804C2.61403 4.81604 3.39553 4.56701 4.19668 4.56804Z" fill="white"/>
<path d="M18.2593 5.625H4.19684C3.45117 5.62581 2.73627 5.92239 2.209 6.44966C1.68173 6.97693 1.38515 7.69183 1.38434 8.4375V16.875C1.38515 17.6207 1.68173 18.3356 2.209 18.8628C2.73627 19.3901 3.45117 19.6867 4.19684 19.6875H18.2593C19.005 19.6867 19.7199 19.3901 20.2472 18.8628C20.7744 18.3356 21.071 17.6207 21.0718 16.875V8.4375C21.071 7.69183 20.7744 6.97693 20.2472 6.44966C19.7199 5.92239 19.005 5.62581 18.2593 5.625ZM16.1719 14.0625C15.8938 14.0625 15.6219 13.98 15.3907 13.8255C15.1594 13.671 14.9792 13.4514 14.8727 13.1944C14.7663 12.9374 14.7384 12.6547 14.7927 12.3819C14.847 12.1091 14.9809 11.8585 15.1776 11.6619C15.3742 11.4652 15.6248 11.3313 15.8976 11.277C16.1704 11.2228 16.4531 11.2506 16.7101 11.357C16.967 11.4635 17.1867 11.6437 17.3412 11.875C17.4957 12.1062 17.5782 12.3781 17.5782 12.6562C17.5782 13.0292 17.43 13.3869 17.1663 13.6506C16.9026 13.9143 16.5449 14.0625 16.1719 14.0625Z" fill="white"/>
<path d="M1.40625 11.4014V7.02881C1.40625 6.07651 1.93359 4.47998 3.76392 4.13413C5.31738 3.84277 6.85547 3.84277 6.85547 3.84277C6.85547 3.84277 7.86621 4.5459 7.03125 4.5459C6.19629 4.5459 6.21826 5.62256 7.03125 5.62256C7.84424 5.62256 7.03125 6.65527 7.03125 6.65527L3.75732 10.3687L1.40625 11.4014Z" fill="white"/>
</svg>
